<svg width="20" height="20" viewBox="0 0 20 20" fill="none" xmlns="http://www.w3.org/2000/svg">
<g clip-path="url(#clip0_324_397)">
<g clip-path="url(#clip1_324_397)">
<path d="M4.95864 10.0023C4.799 9.99501 4.63897 10.0049 4.48187 10.0318C4.21979 10.0705 3.96874 10.1565 3.74335 10.2847C3.51797 10.413 3.32275 10.5809 3.16908 10.7788C3.01541 10.9767 2.90636 11.2006 2.84828 11.4375C2.7902 11.6743 2.78425 11.9193 2.83078 12.1583C2.945 13.1437 4.0942 13.9747 5.15804 13.9995C5.26723 14.002 5.37644 13.9954 5.4843 13.9797C6.63551 13.8093 6.93692 12.7247 6.74717 11.6594C6.53282 10.4566 5.59511 10.0326 4.95864 10.0023ZM6.08665 12.8521C6.03806 12.9187 5.9706 12.9719 5.8915 13.006C5.8124 13.0402 5.72462 13.0541 5.63756 13.0462C5.4845 13.0351 5.34178 12.9713 5.23829 12.8676C5.1348 12.7639 5.07829 12.6281 5.0802 12.4878C5.07754 12.3008 5.11698 12.1152 5.19607 11.9427C5.24546 11.8331 5.25021 11.711 5.20945 11.5985C5.16869 11.486 5.08513 11.3905 4.97395 11.3296C4.83734 11.2522 4.67343 11.2256 4.51605 11.2555C4.36362 11.2822 4.22892 11.3629 4.1413 11.4801C4.08214 11.5675 4.03596 11.6617 4.00397 11.7603C3.99774 11.7775 3.99279 11.7911 3.98903 11.7999C3.93687 11.9215 3.85363 11.9571 3.79735 11.9505C3.77662 11.947 3.75742 11.9381 3.74205 11.925C3.72667 11.9118 3.71576 11.8948 3.71063 11.8762C3.68143 11.7138 3.69511 11.5474 3.75052 11.3909C3.80594 11.2344 3.90148 11.0922 4.02918 10.9763C4.1404 10.8748 4.27549 10.7979 4.42415 10.7513C4.57282 10.7048 4.73114 10.6899 4.88705 10.7078C5.05077 10.7258 5.20724 10.78 5.34295 10.8656C5.47866 10.9512 5.58953 11.0658 5.66598 11.1994C5.73953 11.3601 5.76929 11.5348 5.75268 11.7084C5.73607 11.882 5.6736 12.0493 5.57064 12.196C5.55762 12.2214 5.5457 12.2446 5.53553 12.2653C5.49849 12.3228 5.47805 12.3879 5.47613 12.4546C5.47421 12.5212 5.49086 12.5872 5.52453 12.6464C5.55415 12.6825 5.59282 12.7115 5.63728 12.7311C5.68174 12.7506 5.7307 12.7601 5.78002 12.7588C5.8271 12.7582 5.87394 12.7525 5.91954 12.7418C5.97867 12.7298 6.03981 12.7175 6.07703 12.758C6.08938 12.7707 6.09697 12.7867 6.0987 12.8036C6.10043 12.8206 6.09621 12.8376 6.08665 12.8522V12.8521Z" fill="white"/>
<path d="M16.9833 11.5672C17.089 11.4738 17.1714 11.3596 17.2246 11.2327C17.2779 11.1058 17.3007 10.9694 17.2914 10.8332C17.2703 10.696 17.2022 10.569 17.0975 10.4714C16.7905 10.2315 16.4251 10.0669 16.034 9.99215C15.8554 9.94445 15.7342 9.91391 15.6036 9.87303C15.3714 9.8003 15.2566 9.74174 15.2306 9.32637C15.2193 9.14471 15.186 8.51185 15.174 8.25035C15.1528 7.7921 15.0948 7.16575 14.6863 6.90716C14.5825 6.8423 14.4616 6.80557 14.337 6.80097C14.2673 6.79693 14.1973 6.80344 14.1298 6.82026C13.9225 6.86583 13.7338 6.9673 13.5868 7.11223C13.3965 7.27573 13.1722 7.4002 12.928 7.47775C12.6839 7.55529 12.4253 7.58421 12.1686 7.56266C11.8827 7.55126 11.5798 7.50892 11.2325 7.48933C11.1649 7.48557 11.0971 7.48159 11.0295 7.47822C10.5807 7.49069 10.1516 7.65454 9.82054 7.93988C9.48946 8.22522 9.2784 8.61304 9.22587 9.0326C9.02703 10.334 10.0177 11.0065 10.3036 11.4011C10.3479 11.4515 10.3752 11.5131 10.3823 11.578C10.3749 11.6501 10.3385 11.7168 10.2806 11.7645L10.2806 11.7648C9.8846 12.1843 9.60655 12.6905 9.47188 13.2371C9.33721 13.7837 9.35021 14.3534 9.50968 14.8941C9.54747 15.0239 9.59592 15.1508 9.6546 15.2736C10.3774 16.8806 12.6198 17.629 14.8105 16.9484C15.0975 16.8592 15.3759 16.7473 15.6428 16.6138C16.1231 16.3879 16.5551 16.0808 16.9173 15.7077C17.4823 15.1684 17.8534 14.476 17.9784 13.7279C18.0444 13.3138 17.9478 13.1535 17.8162 13.0764C17.7233 13.0272 17.6156 13.0085 17.5102 13.0233C17.4544 12.6981 17.3565 12.3806 17.2187 12.0779L16.9833 11.5672Z" fill="white"/>
<path d="M13.1586 4.69834C13.1937 4.70784 13.216 4.63631 13.1846 4.61554C12.6647 4.29782 12.0913 4.12085 11.5061 4.09751C11.5005 4.09741 11.495 4.09547 11.4903 4.09192C11.4855 4.08837 11.4817 4.08334 11.4792 4.07739C11.4767 4.07143 11.4757 4.06478 11.4762 4.05818C11.4767 4.05157 11.4788 4.04526 11.4821 4.03994C11.5731 3.89972 11.6793 3.77421 11.798 3.66665C11.8033 3.66178 11.8072 3.65503 11.809 3.6474C11.8108 3.63976 11.8105 3.63163 11.8082 3.6242C11.8058 3.61677 11.8015 3.61043 11.7958 3.6061C11.7902 3.60178 11.7835 3.5997 11.7768 3.60016C11.0603 3.68317 10.3715 3.96956 9.76924 4.43487C9.7641 4.43896 9.75805 4.44113 9.75185 4.44111C9.74566 4.4411 9.73961 4.43889 9.73449 4.43477C9.72937 4.43065 9.72542 4.42482 9.72314 4.41802C9.72087 4.41123 9.72037 4.40378 9.72173 4.39665C9.77024 4.1833 9.84163 3.97811 9.93417 3.78606C9.93722 3.77947 9.93839 3.7719 9.93752 3.76446C9.93664 3.75702 9.93377 3.75011 9.92931 3.74475C9.92486 3.73938 9.91906 3.73585 9.91277 3.73466C9.90648 3.73348 9.90004 3.7347 9.89439 3.73816C9.02474 4.30149 8.24965 5.04742 7.60728 5.93924C7.60226 5.94603 7.59953 5.95476 7.59961 5.96376C7.59969 5.97277 7.60258 5.98143 7.60772 5.98809C7.61286 5.99475 7.61989 5.99895 7.62749 5.9999C7.63508 6.00084 7.64271 5.99846 7.64891 5.9932C8.39332 5.37971 9.23195 4.94315 10.1179 4.70791C11.118 4.43583 12.1572 4.43255 13.1586 4.69833" fill="white"/>
<path d="M10.7995 2.22215C10.7995 2.22215 10.0492 1.31297 9.82271 1.24591C8.42922 0.852346 5.41913 3.02202 3.49717 5.88855C2.71951 7.04837 1.60626 9.10229 2.13858 10.1587C2.32778 10.3959 2.54107 10.6108 2.77469 10.7997C3.13135 10.2765 3.66813 9.91853 4.27195 9.80133C5.02975 7.58391 6.35998 5.62974 8.11489 4.15586C8.957 3.43451 9.85497 2.78771 10.7995 2.22215" fill="white"/>
<path d="M5.77346 13.3033C5.78456 13.3171 5.79133 13.334 5.79288 13.3518C5.79443 13.3696 5.79069 13.3874 5.78215 13.403C5.7406 13.4721 5.68104 13.5279 5.61019 13.5642C5.53933 13.6005 5.46 13.6157 5.38114 13.6083C5.24058 13.5928 5.11102 13.5232 5.01863 13.4135C4.92625 13.3039 4.87792 13.1624 4.88343 13.0176C4.88105 12.8203 4.9162 12.6245 4.98691 12.441C5.03154 12.326 5.0362 12.1988 5.00009 12.0807C4.96399 11.9626 4.88933 11.8609 4.78865 11.7925C4.72906 11.7521 4.66218 11.7244 4.59196 11.7109C4.52173 11.6974 4.44958 11.6985 4.37977 11.7141C4.31137 11.7288 4.24654 11.7574 4.18909 11.7982C4.13164 11.839 4.08273 11.8912 4.04524 11.9516C3.99221 12.0447 3.95098 12.1443 3.92255 12.248C3.91706 12.2663 3.91263 12.2806 3.90928 12.2899C3.86269 12.4186 3.78842 12.4562 3.73809 12.4493C3.7143 12.4459 3.68159 12.4296 3.66062 12.3707C3.6343 12.2003 3.64624 12.026 3.69554 11.861C3.74484 11.6961 3.8302 11.5448 3.94512 11.4188C4.04164 11.3125 4.16144 11.2314 4.29462 11.1821C4.4278 11.1327 4.57053 11.1166 4.71101 11.1349C4.85983 11.1559 5.00126 11.2143 5.12263 11.3051C5.24399 11.3958 5.34151 11.5159 5.40644 11.6547C5.47221 11.8254 5.49874 12.0092 5.484 12.192C5.46926 12.3748 5.41363 12.5517 5.32142 12.7089C5.30976 12.7357 5.29908 12.7602 5.29008 12.7824C5.25692 12.8438 5.23872 12.9125 5.23701 12.9827C5.23529 13.0528 5.25013 13.1224 5.28025 13.1854C5.30571 13.223 5.33987 13.2535 5.37967 13.2743C5.41948 13.295 5.46368 13.3053 5.50832 13.3042C5.5504 13.3036 5.59224 13.2976 5.63284 13.2862C5.68568 13.2735 5.74028 13.2605 5.77345 13.3033L5.77346 13.3033ZM18.7997 13.6366C18.7702 14.2582 18.642 14.8707 18.4203 15.45C17.3141 18.1747 14.6741 19.6916 11.5292 19.5956C8.59736 19.5061 6.09685 17.9159 5.00246 15.3236C4.31157 15.3038 3.65064 15.0303 3.14011 14.5528C2.61273 14.0921 2.27389 13.4448 2.19098 12.7398C2.13746 12.2547 2.196 11.7635 2.36188 11.3059L1.74727 10.7707C-1.06497 8.32999 7.73095 -1.7195 10.5443 0.802751C10.5584 0.815448 11.5012 1.76635 11.5036 1.7687C11.5074 1.76674 12.0238 1.54163 12.0264 1.54053C14.4939 0.490254 16.4962 0.997368 16.4987 2.67312C16.5 3.54462 15.9597 4.56042 15.0943 5.48247C15.4402 5.84321 15.6851 6.29259 15.8033 6.78357C15.8988 7.1261 15.9503 7.47989 15.9568 7.83605C15.9718 8.19119 15.9884 9.01856 15.9901 9.03329C16.012 9.04011 16.2619 9.11057 16.3376 9.13244C16.841 9.2456 17.3095 9.48411 17.7016 9.82689C17.9086 10.0343 18.0441 10.305 18.0878 10.5983C18.1412 10.9788 18.0485 11.3657 17.8293 11.6777C17.8864 11.811 17.9359 11.9475 17.9776 12.0866C18.0504 12.3266 18.1034 12.5258 18.1115 12.5553C18.3792 12.5553 18.7997 12.8721 18.7997 13.6366L18.7997 13.6366ZM6.37174 12.1414C6.1805 10.8691 5.34316 10.4207 4.77499 10.3887C4.63237 10.3809 4.48937 10.3914 4.34927 10.4198C3.33517 10.6301 2.76243 11.5168 2.87513 12.669C2.95721 13.1858 3.20695 13.6592 3.58399 14.0126C3.96102 14.366 4.44333 14.5787 4.95297 14.6165C5.0505 14.6192 5.14805 14.6122 5.24426 14.5955C6.27208 14.4154 6.54118 13.2682 6.37174 12.1414ZM8.10506 4.06466C8.96409 3.34096 9.88044 2.69182 10.8446 2.12399C10.8446 2.12399 10.079 1.21157 9.84784 1.14433C8.42586 0.749217 5.35406 2.92675 3.39282 5.80359C2.59925 6.9676 1.46322 9.02897 2.00638 10.0891C2.19933 10.3271 2.417 10.5428 2.65552 10.7325C3.01866 10.2079 3.56658 9.84865 4.18349 9.73055C4.9553 7.5072 6.3126 5.54616 8.10506 4.06466V4.06466ZM11.1956 14.1332C11.2333 14.3023 11.3149 14.4578 11.4317 14.5833C11.5485 14.7088 11.6962 14.7997 11.8593 14.8463C12.0289 14.9111 12.2038 14.9599 12.3821 14.9922C14.6314 15.3899 16.7342 14.068 17.2077 13.735C17.2433 13.71 17.2667 13.7344 17.2382 13.7785C17.224 13.802 17.2085 13.8247 17.1919 13.8465C16.6124 14.6148 15.0546 15.5044 13.0279 15.5041C12.1439 15.504 11.2605 15.1839 10.9361 14.692C10.4328 13.9289 10.9112 12.8149 11.7497 12.931C11.7507 12.9312 12.0367 12.9645 12.117 12.9736C13.4206 13.1021 14.7345 12.886 15.9334 12.3459C17.0775 11.8 17.5097 11.1992 17.4448 10.7129C17.4232 10.5619 17.3539 10.4222 17.2476 10.3153C16.9347 10.0514 16.5632 9.87049 16.1659 9.78864C15.9842 9.73621 15.8609 9.70274 15.7281 9.65775C15.4919 9.5778 15.3752 9.51345 15.3487 9.05697C15.3372 8.85734 15.3033 8.16188 15.2911 7.87445C15.2695 7.37087 15.2106 6.68254 14.795 6.39834C14.6892 6.32698 14.5664 6.28662 14.4398 6.28163C14.3689 6.2772 14.2977 6.28437 14.2289 6.30287C14.0184 6.35279 13.8266 6.46426 13.6767 6.62375C13.4825 6.80364 13.2541 6.94046 13.0058 7.02563C12.7576 7.11081 12.4949 7.1425 12.2341 7.11872C11.9434 7.10626 11.6352 7.0597 11.282 7.03815C11.2133 7.03399 11.1443 7.02961 11.0754 7.026C10.6207 7.03822 10.1853 7.21741 9.84859 7.53092C9.51188 7.84444 9.29625 8.27144 9.24093 8.73419C9.03871 10.1644 10.0463 10.9034 10.3372 11.3371C10.3822 11.3923 10.4101 11.46 10.4173 11.5315C10.4096 11.6109 10.3726 11.6842 10.3137 11.7364V11.7368C9.91137 12.1962 9.62857 12.7522 9.49151 13.3533C9.35445 13.9544 9.36756 14.5812 9.52963 15.1757C9.56809 15.3185 9.61737 15.458 9.67703 15.5928C10.4123 17.3589 12.6931 18.1812 14.9214 17.4332C15.2131 17.3353 15.4963 17.2124 15.7679 17.0658C16.2559 16.8179 16.6953 16.4803 17.0643 16.0699C17.6382 15.4788 18.0158 14.7176 18.1436 13.8941C18.2107 13.4389 18.1125 13.2629 17.9786 13.1781C17.884 13.1241 17.7745 13.1035 17.6673 13.1197C17.6106 12.7622 17.511 12.4133 17.3709 12.0808C16.7345 12.5729 16.0151 12.9406 15.2487 13.1657C14.3266 13.4327 13.3673 13.5393 12.4108 13.4811C11.7954 13.43 11.3883 13.2453 11.2352 13.7568C12.166 14.0758 13.1544 14.1792 14.1289 14.0594C14.1357 14.0587 14.1427 14.0593 14.1493 14.0614C14.1559 14.0634 14.162 14.0668 14.1673 14.0712C14.1727 14.0757 14.1771 14.0812 14.1803 14.0874C14.1836 14.0937 14.1856 14.1005 14.1863 14.1075C14.1873 14.1193 14.1847 14.1312 14.1789 14.1414C14.1731 14.1517 14.1643 14.1598 14.1538 14.1647C14.1538 14.1647 13.0108 14.7102 11.1956 14.1332V14.1332ZM7.84816 5.83964C8.60416 5.29575 9.45658 4.90849 10.3575 4.69961C11.3738 4.45826 12.4303 4.45534 13.4478 4.69107C13.4835 4.69946 13.5062 4.63605 13.4743 4.61772C12.9463 4.33596 12.3634 4.17892 11.7684 4.1581C11.7626 4.15799 11.757 4.15627 11.7522 4.15312C11.7474 4.14996 11.7435 4.1455 11.7409 4.14023C11.7384 4.13495 11.7374 4.12906 11.7379 4.12321C11.7384 4.11737 11.7405 4.11178 11.744 4.10707C11.8364 3.98276 11.9443 3.87142 12.0651 3.77592C12.0705 3.7716 12.0744 3.76561 12.0763 3.75885C12.0781 3.75208 12.0778 3.74488 12.0754 3.73829C12.073 3.73171 12.0686 3.72608 12.0629 3.72224C12.0571 3.71839 12.0503 3.71652 12.0435 3.7169C11.3149 3.79072 10.6147 4.04483 10.0031 4.45737C9.99786 4.461 9.9917 4.46293 9.98538 4.46291C9.97907 4.46289 9.97291 4.46093 9.96771 4.45728C9.9625 4.45363 9.95848 4.44845 9.95619 4.44243C9.95389 4.43641 9.95341 4.42981 9.95482 4.42351C10.0041 4.23433 10.0766 4.05233 10.1707 3.88191C10.1738 3.87608 10.175 3.86938 10.1742 3.86279C10.1733 3.85621 10.1704 3.85008 10.1658 3.84531C10.1613 3.84055 10.1554 3.8374 10.149 3.83632C10.1426 3.83525 10.136 3.83631 10.1303 3.83935C9.24583 4.33962 8.45807 5.00136 7.80584 5.79193C7.80073 5.79793 7.79795 5.80564 7.79803 5.8136C7.7981 5.82156 7.80104 5.82922 7.80626 5.83511C7.81149 5.841 7.81864 5.84472 7.82637 5.84555C7.8341 5.84639 7.84185 5.84428 7.84816 5.83964V5.83964ZM13.7715 10.6944C13.8331 10.7343 13.9068 10.7496 13.9787 10.7374C14.0506 10.7251 14.1155 10.6862 14.1612 10.628C14.2179 10.5155 14.1355 10.3628 13.9771 10.287C13.9155 10.2471 13.8418 10.2318 13.7699 10.2441C13.698 10.2563 13.633 10.2953 13.5874 10.3535C13.5306 10.466 13.6131 10.6186 13.7715 10.6944ZM14.2574 8.86955C14.2954 9.07215 14.3774 9.2634 14.4974 9.42912C14.6213 9.41351 14.7466 9.41351 14.8705 9.42912C14.9429 9.20672 14.9493 8.96729 14.8887 8.74119C14.7992 8.32403 14.678 8.07155 14.4276 8.1108C14.1772 8.15013 14.168 8.45238 14.2574 8.86955ZM14.7902 9.82785C14.727 9.80928 14.6598 9.81145 14.5979 9.83406C14.536 9.85667 14.4826 9.89858 14.4451 9.95391C14.4077 10.0092 14.3881 10.0752 14.3891 10.1425C14.3901 10.2098 14.4117 10.2751 14.4508 10.3292C14.4899 10.3834 14.5446 10.4236 14.6071 10.4442C14.6697 10.4648 14.7369 10.4649 14.7995 10.4443C14.8621 10.4237 14.9168 10.3836 14.9559 10.3295C14.9951 10.2755 15.0167 10.2102 15.0178 10.1429C15.0269 10.0704 15.0083 9.99714 14.9658 9.93842C14.9234 9.87971 14.8605 9.84009 14.7902 9.82785V9.82785Z" fill="black"/>
<path d="M10.8546 9.59532C10.8201 9.59124 10.8054 9.57886 10.8011 9.56245C10.7877 9.51155 10.881 9.42778 10.9793 9.36732C11.1228 9.27927 11.2909 9.22369 11.4675 9.20591C11.644 9.18813 11.823 9.20875 11.9872 9.26579C12.1407 9.31892 12.2727 9.40806 12.3674 9.52252C12.4025 9.57065 12.4093 9.60797 12.3866 9.62753C12.3512 9.65888 12.2609 9.62297 12.1139 9.56886C11.9373 9.49614 11.7421 9.46087 11.5455 9.46614C11.3125 9.4983 11.0818 9.54143 10.8546 9.59532V9.59532ZM12.32 9.84847C12.2565 9.79243 12.1774 9.75049 12.0898 9.7264C12.0022 9.70231 11.9089 9.69682 11.8181 9.71043C11.6843 9.72237 11.5576 9.7667 11.4533 9.83804C11.4047 9.86731 11.3713 9.91108 11.3599 9.96037C11.3597 9.96586 11.3608 9.97132 11.3634 9.97638C11.3659 9.98144 11.3697 9.98597 11.3746 9.98965C11.3832 9.99622 11.3944 9.99981 11.4061 9.9997C11.4542 9.99378 11.5013 9.98283 11.5462 9.96711C11.7427 9.90495 11.9551 9.88645 12.1627 9.91338C12.2589 9.92246 12.3043 9.92751 12.3254 9.8998C12.3309 9.8918 12.3332 9.88259 12.3323 9.87342C12.3313 9.86425 12.327 9.85555 12.32 9.84847V9.84847Z" fill="black"/>
</g>
</g>
<defs>
<clipPath id="clip0_324_397">
<rect width="19.2" height="19.2" fill="white" transform="translate(0.399902 0.399902)"/>
</clipPath>
<clipPath id="clip1_324_397">
<rect width="18" height="19.2" fill="white" transform="translate(1.19971 0.399902)"/>
</clipPath>
</defs>
</svg>
