<svg width="20" height="20" viewBox="0 0 20 20" fill="none" xmlns="http://www.w3.org/2000/svg">
<g clip-path="url(#clip0_324_397)">
<g clip-path="url(#clip1_324_397)">
<path d="M16.597 4.03638C16.5839 3.94101 16.5006 3.8881 16.4314 3.88234C16.3628 3.87658 15.0184 3.85615 15.0184 3.85615C15.0184 3.85615 13.894 2.76426 13.7829 2.65318C13.6718 2.54211 13.4549 2.57564 13.3706 2.60079C13.3695 2.60131 13.1594 2.66628 12.8058 2.77578C12.7466 2.58402 12.6596 2.34825 12.5354 2.11143C12.1351 1.34752 11.5488 0.943561 10.8404 0.942516C10.8394 0.942516 10.8389 0.942516 10.8378 0.942516C10.7886 0.942516 10.7398 0.947231 10.6906 0.951421C10.6696 0.926272 10.6487 0.901649 10.6267 0.877545C10.3181 0.547464 9.92252 0.386614 9.44834 0.40076C8.53354 0.426957 7.62242 1.08765 6.88366 2.26127C6.36391 3.087 5.96832 4.12442 5.85621 4.92761C4.8057 5.25297 4.07114 5.48035 4.05489 5.4856C3.52467 5.6522 3.5079 5.66845 3.43874 6.16831C3.3874 6.54604 2 17.2743 2 17.2743L13.6268 19.2851L18.666 18.0324C18.666 18.0324 16.6101 4.13175 16.597 4.03638ZM12.2237 2.95602C11.9559 3.0388 11.6515 3.13311 11.3214 3.23528C11.3146 2.77212 11.2596 2.12767 11.0437 1.57072C11.738 1.70223 12.0796 2.48762 12.2237 2.95602ZM10.7131 3.4239C10.1038 3.6125 9.4389 3.81842 8.77193 4.02486C8.9595 3.30653 9.31526 2.59136 9.75223 2.12243C9.91465 1.94796 10.142 1.75357 10.4113 1.6425C10.6644 2.17063 10.7194 2.91829 10.7131 3.4239ZM9.46666 1.00958C9.68148 1.00486 9.86224 1.05202 10.0168 1.15366C9.76952 1.28203 9.53059 1.46646 9.30635 1.70694C8.72529 2.33043 8.27994 3.29815 8.10233 4.23181C7.54852 4.40313 7.00676 4.57134 6.50797 4.72538C6.82288 3.25571 8.05464 1.05045 9.46666 1.00958Z" fill="#95BF47"/>
<path d="M16.4321 3.88297C16.3635 3.87721 15.019 3.85679 15.019 3.85679C15.019 3.85679 13.8947 2.76488 13.7836 2.65381C13.7422 2.61242 13.6861 2.59094 13.6274 2.58203L13.628 19.2847L18.6667 18.0325C18.6667 18.0325 16.6108 4.13238 16.5977 4.03701C16.5846 3.94164 16.5007 3.88873 16.4321 3.88297Z" fill="#5E8E3E"/>
<path d="M10.8343 6.47373L10.2491 8.66326C10.2491 8.66326 9.59622 8.36619 8.82237 8.41492C7.68749 8.48671 7.67543 9.2024 7.68698 9.38212C7.7488 10.3614 10.325 10.5751 10.4696 12.8689C10.5833 14.6734 9.51237 15.9078 7.96938 16.0052C6.11724 16.1221 5.09766 15.0297 5.09766 15.0297L5.49009 13.3604C5.49009 13.3604 6.51648 14.1348 7.33802 14.0829C7.87455 14.0489 8.06629 13.6124 8.04691 13.3038C7.96623 12.0264 5.86837 12.1019 5.73582 10.003C5.62421 8.2368 6.78424 6.44701 9.34366 6.28564C10.3297 6.22224 10.8343 6.47373 10.8343 6.47373Z" fill="white"/>
</g>
</g>
<defs>
<clipPath id="clip0_324_397">
<rect width="19.2" height="19.2" fill="white" transform="translate(0.399902 0.399902)"/>
</clipPath>
<clipPath id="clip1_324_397">
<rect width="16.682" height="19.2" fill="white" transform="translate(2 0.399902)"/>
</clipPath>
</defs>
</svg>
