<svg width="20" height="20" viewBox="0 0 20 20" fill="none" xmlns="http://www.w3.org/2000/svg">
<path d="M14.9884 10.0764L11.2885 8.71426L9.92632 5.01141C9.84566 4.79227 9.69972 4.60315 9.50819 4.46956C9.31666 4.33597 9.08877 4.26434 8.85525 4.26434C8.62174 4.26434 8.39385 4.33597 8.20232 4.46956C8.01079 4.60315 7.86485 4.79227 7.78419 5.01141L6.42062 8.70996L2.71777 10.0721C2.49863 10.1528 2.30951 10.2987 2.17592 10.4902C2.04233 10.6818 1.9707 10.9096 1.9707 11.1432C1.9707 11.3767 2.04233 11.6046 2.17592 11.7961C2.30951 11.9876 2.49863 12.1336 2.71777 12.2142L6.4156 13.585L7.77774 17.2857C7.8584 17.5048 8.00434 17.6939 8.19587 17.8275C8.38739 17.9611 8.61529 18.0327 8.8488 18.0327C9.08232 18.0327 9.31021 17.9611 9.50174 17.8275C9.69326 17.6939 9.8392 17.5048 9.91987 17.2857L11.282 13.5857L14.9848 12.2235C15.204 12.1429 15.3931 11.9969 15.5267 11.8054C15.6603 11.6139 15.7319 11.386 15.7319 11.1525C15.7319 10.919 15.6603 10.6911 15.5267 10.4995C15.3931 10.308 15.204 10.1621 14.9848 10.0814L14.9884 10.0764ZM10.8884 12.5096C10.7334 12.5665 10.5927 12.6564 10.4759 12.7732C10.3592 12.8899 10.2693 13.0307 10.2124 13.1856L8.85024 16.8749L7.49097 13.1828C7.43404 13.0286 7.34439 12.8886 7.22818 12.7724C7.11197 12.6562 6.97196 12.5665 6.81779 12.5096L3.12856 11.1475L6.81779 9.78533C6.97196 9.7284 7.11197 9.63874 7.22818 9.52254C7.34439 9.40633 7.43404 9.26632 7.49097 9.11215L8.8531 5.42292L10.2152 9.11215C10.2721 9.26714 10.3621 9.40789 10.4788 9.52463C10.5955 9.64137 10.7363 9.73131 10.8913 9.7882L14.5805 11.1503L10.8884 12.5096ZM11.1472 3.69158C11.1472 3.53947 11.2076 3.39359 11.3152 3.28603C11.4228 3.17847 11.5686 3.11805 11.7208 3.11805H12.8678V1.97099C12.8678 1.81888 12.9282 1.673 13.0358 1.56544C13.1433 1.45789 13.2892 1.39746 13.4413 1.39746C13.5934 1.39746 13.7393 1.45789 13.8469 1.56544C13.9544 1.673 14.0149 1.81888 14.0149 1.97099V3.11805H15.1619C15.314 3.11805 15.4599 3.17847 15.5675 3.28603C15.675 3.39359 15.7355 3.53947 15.7355 3.69158C15.7355 3.84369 15.675 3.98957 15.5675 4.09713C15.4599 4.20468 15.314 4.26511 15.1619 4.26511H14.0149V5.41217C14.0149 5.56428 13.9544 5.71016 13.8469 5.81771C13.7393 5.92527 13.5934 5.9857 13.4413 5.9857C13.2892 5.9857 13.1433 5.92527 13.0358 5.81771C12.9282 5.71016 12.8678 5.56428 12.8678 5.41217V4.26511H11.7208C11.5686 4.26511 11.4228 4.20468 11.3152 4.09713C11.2076 3.98957 11.1472 3.84369 11.1472 3.69158ZM18.6031 7.13276C18.6031 7.28486 18.5427 7.43074 18.4351 7.5383C18.3276 7.64586 18.1817 7.70628 18.0296 7.70628H17.456V8.27981C17.456 8.43192 17.3956 8.5778 17.2881 8.68536C17.1805 8.79292 17.0346 8.85334 16.8825 8.85334C16.7304 8.85334 16.5845 8.79292 16.477 8.68536C16.3694 8.5778 16.309 8.43192 16.309 8.27981V7.70628H15.7355C15.5833 7.70628 15.4375 7.64586 15.3299 7.5383C15.2224 7.43074 15.1619 7.28486 15.1619 7.13276C15.1619 6.98065 15.2224 6.83477 15.3299 6.72721C15.4375 6.61965 15.5833 6.55923 15.7355 6.55923H16.309V5.9857C16.309 5.83359 16.3694 5.68771 16.477 5.58015C16.5845 5.47259 16.7304 5.41217 16.8825 5.41217C17.0346 5.41217 17.1805 5.47259 17.2881 5.58015C17.3956 5.68771 17.456 5.83359 17.456 5.9857V6.55923H18.0296C18.1817 6.55923 18.3276 6.61965 18.4351 6.72721C18.5427 6.83477 18.6031 6.98065 18.6031 7.13276Z" fill="black"/>
</svg>
